<svg id="Layer_1" data-name="Layer 1" xmlns="http://www.w3.org/2000/svg" viewBox="0 0 513.79 605"><defs><style>.cls-1,.cls-10{fill:#999;}.cls-1,.cls-3{opacity:0.8;}.cls-2,.cls-9{fill:#fff;}.cls-4{fill:#e6e6e6;}.cls-5{fill:#f2f2f2;stroke-width:2px;}.cls-5,.cls-8,.cls-9{stroke:#000;}.cls-14,.cls-5,.cls-8,.cls-9{stroke-miterlimit:10;}.cls-6{fill:gray;}.cls-7{opacity:0.6;}.cls-8{fill:none;}.cls-11,.cls-15{fill:#ffc269;}.cls-11{opacity:0;}.cls-12{fill:#c1272d;}.cls-13{fill:#b3b3b3;}.cls-14{fill:#dd9458;stroke:#ffc269;stroke-width:3px;}.cls-16{opacity:0.9;}.cls-17{fill:#666;opacity:0.7;}.cls-18{fill:#42210b;}</style></defs><title>coffee</title><path class="cls-1" d="M549.5,234.41c-11.42-14.32-27-32.22-30-32.94C496.34,195.81,398,404.81,282.64,410.62c-52,2.63-110.74-36.62-124.16-79.73-8.95-28.76-2.55-74.5,1.43-102.93,4.22-30.18,9-41.9,5.71-43.49-8.33-4-70,56.91-74.21,139.17-4.28,84,26.08,136.71,41.38,158.47,17.13,24.34,44.22,49.84,84.2,72,48.34,26.83,93.42,27.27,121.3,27.55,27.37.27,75.64-7.94,101.33-18,1.92-.76,1.42-1.4,11.41-4.3,2.57-.74,14.47.13,22.84,5.73,10.41,7,26.25,25.47,34.24,40.09,12.74,23.29,23.49,27.37,28.55,30.07,16.18,8.64,25.56-1.18,31.39-4.34,3.21-1.74,43.76-20.91,35.68-42a31.07,31.07,0,0,0-4.28-7.25c-20-32.28-38.73-46.64-47.1-73.8-4.29-13.93-3.7-22.93-2.85-28.64,2.11-14.19,8.26-18.44,15.7-32.93,4.16-8.12,6.18-12.21,7.27-14.61a141.24,141.24,0,0,0,7.19-19.82,168.06,168.06,0,0,0,4.09-18.55,205.93,205.93,0,0,0,2.57-28.09,279.4,279.4,0,0,0-5.42-61.9s-10-41.74-28.55-66.08" transform="translate(-91 -33.79)"/><path class="cls-2" d="M224.13,449.18c-8.47-14.06.09-24.06-10-40.09-6-9.51-9.61-7-18.55-18.61-2.79-3.63-14.49-18.86-14.27-37.23.16-13.59,6.76-22.92,10-28.64,15.29-27.11,9.85-63.88-2.85-90.2-8.94-18.54-12-21.2-14.27-21.48-9-1.14-18.74,14.78-22.83,21.48-2.29,3.74-4.46,8-8.57,18.61-6.19,16.08-9.34,24.25-11.41,34.36-4.36,21.22-1.48,38.73,0,47.25,5,28.77,17.8,48.36,25.68,60.14,11.18,16.71,22.26,27.22,31.4,35.8,23.69,22.21,42.39,30.83,47.09,32.93,12.78,5.68,22.6,7.78,22.84,7.16C258.75,469.69,234.59,466.56,224.13,449.18Z" transform="translate(-91 -33.79)"/><path class="cls-2" d="M224.13,449.18c-4.41-22.9-.59-29.57-2.86-45.82-3.6-25.83-18.56-46.9-37.1-73-13-18.28-19-22.71-21.41-35.8A79.33,79.33,0,0,1,167,253s9.18-23,8.57-32.93a39.48,39.48,0,0,0-1.43-7.16c-.78-2.7-1.64-5.7-2.85-5.73-1,0-1.5,2-2.86,4.3-2.38,4.06-5.55,5.92-7.13,7.16-5.3,4.13-15,18.59-21.41,31.5-4.35,8.75-12.6,25.78-14.27,48.68-1.83,25,5.19,43.64,11.42,60.13,2.67,7.09,12.32,31.38,34.25,57.28,19,22.5,47.2,46,52.8,41.52C225.71,456.49,224.94,453.41,224.13,449.18Z" transform="translate(-91 -33.79)"/><g class="cls-3"><path class="cls-4" d="M542.66,333.78c-3.84,52.14-37,89.54-49.69,103.19-65.47,70.57-156.89,61.68-175.69,59.16-19.46-2.61-100.85-11.89-156-82.53-14.12-18.07-43.23-60.87-39.62-112.36,6.25-89.13,115-169.19,221.88-161.27C460.73,148.66,549.9,235.43,542.66,333.78Z" transform="translate(-91 -33.79)"/><path d="M542.78,333.79a141.14,141.14,0,0,1-7.91,37.27,178.82,178.82,0,0,1-16.76,34.26,216.58,216.58,0,0,1-23.18,30.34,184,184,0,0,1-61.33,45A202.53,202.53,0,0,1,397.33,493c-3.1.78-6.24,1.38-9.37,2s-6.29,1.16-9.46,1.57c-6.32.91-12.69,1.58-19.07,1.94a229.8,229.8,0,0,1-38.28-.88,304.43,304.43,0,0,1-37.67-6.71,254.78,254.78,0,0,1-36.31-12,219.05,219.05,0,0,1-64.14-41,216.61,216.61,0,0,1-45.46-61,173.93,173.93,0,0,1-13.07-35.88,134,134,0,0,1-3.62-38,47.8,47.8,0,0,1,.35-4.78l.49-4.77c.18-1.59.52-3.16.78-4.73s.51-3.16.85-4.73l1.14-4.66c.39-1.55.71-3.12,1.23-4.63l1.44-4.58c.25-.76.47-1.53.74-2.28l.86-2.24a157.25,157.25,0,0,1,17.76-33.91c14.48-21.11,33.39-39,54.54-53.32a238.58,238.58,0,0,1,69.31-32.11,214.08,214.08,0,0,1,76-7.35c3.17.33,6.36.56,9.53,1l9.5,1.32,9.43,1.73c3.14.61,6.24,1.39,9.36,2.07a239.89,239.89,0,0,1,36.42,11.89,220.69,220.69,0,0,1,64.43,40.83c18.8,17.26,34.41,38.13,44.64,61.51a162.14,162.14,0,0,1,11.15,36.46A151.64,151.64,0,0,1,542.78,333.79Zm-.25,0a153.75,153.75,0,0,0-13.47-74.22C518.59,236.41,502.83,215.85,484,199a223.39,223.39,0,0,0-64.24-39.85,248,248,0,0,0-73.55-17.62,214,214,0,0,0-75.1,7.29,235.84,235.84,0,0,0-68.68,31.55,222.16,222.16,0,0,0-29.57,23.74,190.45,190.45,0,0,0-24.71,28.72,155.2,155.2,0,0,0-17.8,33.39,121.23,121.23,0,0,0-8.05,36.91,132.6,132.6,0,0,0,3.3,37.71,166.88,166.88,0,0,0,12.81,35.73A214.91,214.91,0,0,0,158.22,409a208,208,0,0,0,25.4,28.31l3.55,3.16,1.78,1.59,1.83,1.52,3.66,3c1.24,1,2.52,1.94,3.77,2.91,2.49,2,5.11,3.76,7.68,5.62,1.3.91,2.64,1.76,4,2.65s2.63,1.76,4,2.57c5.36,3.4,10.93,6.44,16.56,9.37s11.43,5.49,17.3,7.91a252.39,252.39,0,0,0,36.19,11.6q9.24,2.22,18.63,3.75c6.24,1.05,12.57,1.85,18.85,2.6a230.62,230.62,0,0,0,75.45-4.71,199.51,199.51,0,0,0,36-12,190.41,190.41,0,0,0,32.91-18.81,183.66,183.66,0,0,0,28.4-25.19A216,216,0,0,0,517.56,405a170.49,170.49,0,0,0,16.92-34.05A140.74,140.74,0,0,0,542.53,333.78Z" transform="translate(-91 -33.79)"/></g><path class="cls-5" d="M566.51,337.67c-4.29,58.2-41.7,100.58-55.72,115.83-72.44,78.83-172.8,68.39-193.58,65.59-21.51-2.9-111.49-13.19-172.45-92-15.59-20.16-47.74-67.92-43.7-125.39,7-99.51,127.21-189,245.42-180.22C476.08,131.08,574.59,227.88,566.51,337.67Z" transform="translate(-91 -33.79)"/><path class="cls-2" d="M290.85,477.9c.07,3.23,55,10.73,118.28-3.32,16.71-3.71,26.2-3.92,37.85-11,60.23-36.49,101.66-106.74,89.54-118.31-11.77-11.23-116.95,3.91-146.85,52.34-4.11,6.66-63.71,34.12-52.8,47.25,7.13,8.6,42.33,15.67,3.38,24.15C306.17,476.44,290.81,476.18,290.85,477.9Z" transform="translate(-91 -33.79)"/><path class="cls-2" d="M536.66,280.22c-1.78-7.84-5.67-25-17.13-41.52-20.23-29.25-59-49.41-67.07-41.52-9.54,9.27,20.71,59.82,41.38,74.45,7.23,5.12,14.25,10.54,21.41,15.75,7.66,5.57,10.41,7.49,14.27,11.46,5.45,5.59,7.09,9.06,8.56,8.59C541,306.5,539.27,291.72,536.66,280.22Z" transform="translate(-91 -33.79)"/><path class="cls-2" d="M191.11,204.3c-8.21.8-28.47,15.81-38.34,40.13-6,14.67-14.71,40-12.58,63.12,2.15,23.4,5.74,38.87,11.16,51.42,6.08,14.11,16.25,26.18,20.49,32.56,8.56,12.88,16.44,21.22,24.74,30a224.51,224.51,0,0,0,21.19,20.37c16.93,14,31.88,21.12,32.79,20.31,5-4.46-11.95-9.78-28-28.15-8.14-9.32-10.2-13.09-10.36-17.43-.41-11.4,37.44,16.15,39,5.33,2.8-19-59.32-62.19-62.79-95.94-1.24-12.1,23.86-27.55,24.26-28.63,7.25-19.79,2.59-18.38,1.52-28.27-.54-4.9-5.18-7.32-10.78-11.6C177,237.26,201.54,203.3,191.11,204.3Z" transform="translate(-91 -33.79)"/><path class="cls-2" d="M229.84,354.68,234.12,326a98.32,98.32,0,0,1-21.41-28.63l-11.42,47.25Z" transform="translate(-91 -33.79)"/><path class="cls-6" d="M517.47,413.37c-2.68-9-12.55-10.62-23.54-16.74-33-18.37-29.58-51.71-52.95-59.37-15.77-5.18-27.74,6.58-42.66,12.17-45.26,17-81.64,22.08-134.59-11.41-1.51-1-3-2-4.43-3.16a10.63,10.63,0,0,1-2.53.3,9.08,9.08,0,0,1-8.86-5.86,9.86,9.86,0,0,1-5.06-2.58c-5.06-4.67-9-10.65-13.46-15.94,2.72,10.42-1.89,9.89,5.35,28.92a62.4,62.4,0,0,0,5,10.3c6,9.89,13,15.57,20.34,20.75a159.16,159.16,0,0,0,30.89,16.74c16.6,6.77,29.85,8.91,41.19,10.66,29.26,4.53,63.14,4,75-3a9.93,9.93,0,0,1,4.41-1.53c7.49-.58,13.49,8.83,19.12,16.75,10.09,14.19,17.45,24.53,27.95,32,5.31,3.76,17,12.05,30.89,9.13,9.4-2,15.32-8.16,17.65-10.65C508.2,439.68,521.08,425.55,517.47,413.37Z" transform="translate(-91 -33.79)"/><path class="cls-1" d="M483.73,308.86c5.12.58,9.3-27,9.75-30.07,2.36-16,2.15-32.4.75-32.93-1-.37-1.34,7.66-5.25,17.18-5.07,12.35-9.69,11.53-11.26,20C475.84,293.37,480,308.44,483.73,308.86Z" transform="translate(-91 -33.79)"/><path class="cls-4" d="M241.25,324.61c-5.71-5.73-21.34-22.4-37.82-49.4-4.94-8.1-10.82-18.2-17.12-30.07" transform="translate(-91 -33.79)"/><path d="M241.25,324.61a186.49,186.49,0,0,1-16.58-17.72c-5.17-6.24-10-12.75-14.56-19.46s-8.79-13.63-12.75-20.68-7.69-14.24-11.05-21.61l12.56,20.73c4.21,6.89,8.39,13.77,12.86,20.47s9.13,13.27,14.06,19.66S235.8,318.64,241.25,324.61Z" transform="translate(-91 -33.79)"/><g class="cls-7"><ellipse class="cls-2" cx="251.57" cy="179.85" rx="110.6" ry="81.61"/><path d="M453.17,213.64a65,65,0,0,1-11.08,35.76,91.39,91.39,0,0,1-27.2,26.14,125.77,125.77,0,0,1-34.69,15.19,148.72,148.72,0,0,1-75.34.36,124.61,124.61,0,0,1-35-15,92.09,92.09,0,0,1-27.54-26.26,63.45,63.45,0,0,1,0-72.46,92.3,92.3,0,0,1,27.53-26.26,125,125,0,0,1,35-15,149,149,0,0,1,75.34.36,125.8,125.8,0,0,1,34.69,15.2,91.27,91.27,0,0,1,27.2,26.14A65,65,0,0,1,453.17,213.64Zm0,0A64.9,64.9,0,0,0,442,178a90.92,90.92,0,0,0-27.23-26A123.48,123.48,0,0,0,380,137.17a147.62,147.62,0,0,0-74.83.36A124.52,124.52,0,0,0,270.8,152.6a90.37,90.37,0,0,0-26.91,25.84,62.21,62.21,0,0,0,0,70.41,90.34,90.34,0,0,0,26.9,25.84,124.74,124.74,0,0,0,34.42,15.08,147.92,147.92,0,0,0,74.83.36,123.79,123.79,0,0,0,34.7-14.84,91,91,0,0,0,27.23-26A64.93,64.93,0,0,0,453.17,213.64Z" transform="translate(-91 -33.79)"/></g><path d="M427.49,316.74a27,27,0,0,1,13.45-1.21,19.42,19.42,0,0,1,6.4,2.38,28.07,28.07,0,0,1,5.16,4.5c6.13,6.72,11.9,13.74,17.47,20.92s10.91,14.54,16,22a134.73,134.73,0,0,1,7.34,11.53,33.2,33.2,0,0,1,2.6,6.39c.32,1.11.56,2.23.8,3.35a27.65,27.65,0,0,1,.52,3.42,12.12,12.12,0,0,1-1.41,6.85,14.61,14.61,0,0,1-4.76,5.09,26.88,26.88,0,0,1-6.23,3,19.68,19.68,0,0,1-6.85,1.11,17,17,0,0,1-1.74-.12c-.58-.07-1.09-.1-1.71-.19a8.62,8.62,0,0,1-3.27-1.39,52.29,52.29,0,0,1-5.43-4.2,94.88,94.88,0,0,1-9.52-9.82c-3-3.46-5.61-7.17-8.32-10.8a133.12,133.12,0,0,1-7.74-11.23c-1.17-2-2.18-4-3.16-6.06a41.19,41.19,0,0,1-2.51-6.34,13,13,0,0,1-.53-3.38,9,9,0,0,1,.64-3.36,12.38,12.38,0,0,1,4.18-5.28,12.34,12.34,0,0,0-4.07,5.33,8.7,8.7,0,0,0-.57,3.3,12.92,12.92,0,0,0,.58,3.32,42.1,42.1,0,0,0,2.61,6.25c1,2,2.06,4,3.24,6,2.36,3.86,5.1,7.48,7.83,11.1s5.42,7.28,8.4,10.69a98.37,98.37,0,0,0,9.49,9.66,53.45,53.45,0,0,0,5.35,4.1,7.65,7.65,0,0,0,2.94,1.25c.51.07,1.13.12,1.68.18a15.24,15.24,0,0,0,1.65.11,18.92,18.92,0,0,0,6.53-1.08,26.56,26.56,0,0,0,6-2.91,13.69,13.69,0,0,0,4.44-4.77,11.07,11.07,0,0,0,1.27-6.3,38.2,38.2,0,0,0-1.26-6.58,32,32,0,0,0-2.51-6.21,132.85,132.85,0,0,0-7.24-11.47q-3.83-5.62-7.79-11.15c-2.67-3.66-5.36-7.32-8.1-10.94-5.48-7.21-11.19-14.29-17.22-21.05a27.13,27.13,0,0,0-5-4.52,19.1,19.1,0,0,0-6.25-2.45A26.89,26.89,0,0,0,427.49,316.74Z" transform="translate(-91 -33.79)"/><path class="cls-4" d="M499.55,261.61c-2.06,1-16.54,17.37-19.26,22.19a9.36,9.36,0,0,0,0,10c3.86,7,23.55,28.57,28.54,34.36a111.87,111.87,0,0,1,14.27,21.48c9.55,17.61,11,29.24,11.42,32.93.64,6.33,1.16,12-1.43,18.61-3.28,8.39-9.52,13.2-12.84,15.75s-7.76,6-14.28,7.16c-5.39,1-8.84.73-15-.71A71.13,71.13,0,0,1,474.58,417c-4.28-2.35-7.42-4.93-18.55-17.18-9.81-10.78-14.71-16.17-20-22.91-4.59-5.86-10-11.09-14.27-17.18a29.17,29.17,0,0,0-7.14-7.16,15,15,0,0,0-5.71-2.86c-2.79-.59-5.13,0-11.41,2.86-7.85,3.58-9,4.3-12.85,5.73a65.32,65.32,0,0,1-11.41,2.86,192.16,192.16,0,0,1-31.4,2.87,146.84,146.84,0,0,1-37.1-4.3,143.86,143.86,0,0,1-32.83-12.89,163.21,163.21,0,0,1-27.71-18.37" transform="translate(-91 -33.79)"/><path d="M499.6,261.7a20.31,20.31,0,0,0-2.89,2.62c-.92.93-1.82,1.89-2.7,2.86q-2.65,2.91-5.21,5.9c-1.71,2-3.38,4-5,6.09-.81,1-1.61,2.08-2.34,3.16a14.26,14.26,0,0,0-1.86,3.4,9.08,9.08,0,0,0,.6,7.46,48.85,48.85,0,0,0,4.44,6.44c3.23,4.12,6.64,8.12,10.09,12.08s6.94,7.88,10.44,11.8c1.74,2,3.51,3.91,5.2,5.94s3.29,4.12,4.81,6.28a130.89,130.89,0,0,1,8.19,13.51,124.28,124.28,0,0,1,6.73,14.3,80.27,80.27,0,0,1,4.41,15.21c.48,2.62.7,5.25.92,7.88a38.73,38.73,0,0,1-.08,8,30.22,30.22,0,0,1-6.16,14.64,39.14,39.14,0,0,1-5.52,5.77c-2,1.72-4.11,3.31-6.29,4.86a30.1,30.1,0,0,1-7.09,3.76,31.3,31.3,0,0,1-7.86,1.66,29.89,29.89,0,0,1-8-.45,57.19,57.19,0,0,1-7.74-1.92,68,68,0,0,1-14.52-6.52,41.81,41.81,0,0,1-6.21-5.06c-1.91-1.84-3.74-3.74-5.55-5.65-3.62-3.83-7.14-7.73-10.68-11.61s-7.07-7.79-10.47-11.83c-1.69-2-3.35-4.11-5-6.13s-3.39-4-5.13-5.93-3.49-3.95-5.16-6c-.84-1-1.66-2.08-2.45-3.15A37.82,37.82,0,0,0,419.2,358a28.49,28.49,0,0,0-5.7-5,15.91,15.91,0,0,0-3.22-1.84,8.81,8.81,0,0,0-3.45-.65c-2.33.11-4.76,1.18-7.14,2.19s-4.76,2.17-7.13,3.27-4.79,2.28-7.3,3.18a55.74,55.74,0,0,1-7.71,2.19c-5.19,1.12-10.41,1.88-15.66,2.48s-10.52.92-15.8,1.07c-2.64.09-5.29.06-7.92,0s-5.28-.15-7.91-.33a136.38,136.38,0,0,1-31.12-5.65,139.7,139.7,0,0,1-14.85-5.47c-4.84-2.1-9.54-4.5-14.15-7a164,164,0,0,1-26-17.85l.13-.16a163.36,163.36,0,0,0,26.29,17.21c4.64,2.44,9.34,4.76,14.18,6.76a137.18,137.18,0,0,0,14.79,5.21c20.1,5.91,41.39,6.69,62.13,4.26,5.19-.6,10.37-1.35,15.45-2.45a54.75,54.75,0,0,0,7.45-2.1c2.43-.88,4.75-2,7.14-3.12s4.76-2.22,7.19-3.29c1.22-.53,2.45-1.05,3.74-1.49a14.11,14.11,0,0,1,4.13-.86,10.86,10.86,0,0,1,4.24.78,18.3,18.3,0,0,1,3.61,2.05,30.74,30.74,0,0,1,6.08,5.37c.88,1,1.69,2.18,2.43,3.21s1.54,2.08,2.36,3.09c1.63,2,3.35,4,5.08,6s3.47,4,5.13,6,3.24,4.13,4.93,6.14c3.34,4,6.83,7.94,10.34,11.84s7,7.82,10.59,11.65c1.79,1.91,3.6,3.81,5.47,5.62a39.67,39.67,0,0,0,6,4.91,66.39,66.39,0,0,0,14.14,6.42,55.5,55.5,0,0,0,7.54,1.91,28.58,28.58,0,0,0,7.66.47,30.37,30.37,0,0,0,7.52-1.54,29.3,29.3,0,0,0,6.8-3.58c2.12-1.48,4.22-3.09,6.2-4.75a37.2,37.2,0,0,0,5.38-5.56,29.06,29.06,0,0,0,6-14,37.83,37.83,0,0,0,.11-7.75c-.21-2.61-.42-5.22-.86-7.78a80,80,0,0,0-4.29-15,122.26,122.26,0,0,0-6.59-14.23,132.63,132.63,0,0,0-8.05-13.49c-1.5-2.15-3.07-4.23-4.74-6.25s-3.42-4-5.15-5.95c-3.47-3.94-6.94-7.89-10.37-11.88s-6.81-8-10-12.17a49.29,49.29,0,0,1-4.45-6.55,11.6,11.6,0,0,1-1.13-3.83,8.63,8.63,0,0,1,.56-4,15.37,15.37,0,0,1,1.93-3.48c.75-1.08,1.56-2.12,2.37-3.15,1.63-2.07,3.32-4.08,5-6.07s3.47-3.95,5.25-5.88c.9-1,1.8-1.92,2.73-2.85a20.75,20.75,0,0,1,3-2.64Z" transform="translate(-91 -33.79)"/><path d="M192,359.69q1.75-8.91,3.88-17.74c1.4-5.89,2.9-11.74,4.43-17.59s3.15-11.68,4.85-17.49,3.47-11.59,5.39-17.34q-1.75,8.93-3.88,17.74c-1.4,5.89-2.9,11.75-4.43,17.6s-3.15,11.67-4.85,17.48S193.94,353.94,192,359.69Z" transform="translate(-91 -33.79)"/><path d="M230.53,372.62a82.53,82.53,0,0,1-9.75-2.87c-1.58-.6-3.14-1.28-4.73-1.85s-3.22-1-4.85-1.51c-3.27-.89-6.51-1.9-9.72-3s-6.37-2.31-9.48-3.68l0-.1c3.32.78,6.56,1.74,9.79,2.77s6.4,2.21,9.55,3.46c1.58.62,3.17,1.21,4.78,1.72s3.27.9,4.9,1.37a84,84,0,0,1,9.52,3.57Z" transform="translate(-91 -33.79)"/><path d="M240.54,325.33c-.63,4-1.37,7.93-2.12,11.89s-1.6,7.89-2.39,11.84-1.7,7.86-2.61,11.78L232,366.72c-.5,1.95-1,3.91-1.49,5.86.3-2,.67-4,1-6l1.11-5.94c.75-3.95,1.59-7.89,2.39-11.83s1.69-7.87,2.61-11.79S239.5,329.22,240.54,325.33Z" transform="translate(-91 -33.79)"/><line class="cls-8" x1="286.54" y1="341.65" x2="290.82" y2="341.65"/><line class="cls-8" x1="245.15" y1="360.26" x2="262.28" y2="397.49"/><line class="cls-8" x1="310.8" y1="378.88" x2="262.28" y2="397.49"/><line class="cls-8" x1="289.39" y1="341.65" x2="310.8" y2="378.88"/><path class="cls-8" d="M337.58,392.62c1.93-2.53,3.33-3,4.28-2.86s1.22.9,2.86,1.43a7.38,7.38,0,0,0,4.28,0c1.29-.36,1.42-.76,2.85-1.43,2.83-1.33,3.49-.33,5.71-1.43a11.25,11.25,0,0,0,4.28-4.3,23.94,23.94,0,0,0,1.43-2.86c1.9-4.22,1.85-5.4,2.85-5.73,1.27-.42,2.05,1.23,4.28,1.43,1.59.14,2.05-1.06,4.28-1.43a9,9,0,0,1,2.86,0" transform="translate(-91 -33.79)"/><line class="cls-8" x1="246.58" y1="358.83" x2="245.15" y2="361.69"/><path d="M390.38,399.78c-3.37,1.51-6.79,2.91-10.21,4.3s-6.86,2.72-10.3,4S363,410.73,359.48,412l-5.22,1.84c-1.76.58-3.5,1.19-5.26,1.74,1.68-.76,3.39-1.46,5.08-2.2l5.13-2.09c3.41-1.4,6.86-2.73,10.3-4.05s6.91-2.6,10.39-3.83S386.86,400.9,390.38,399.78Z" transform="translate(-91 -33.79)"/><path class="cls-2" d="M461.77,350.61a.51.51,0,0,1,.27-.81,7.88,7.88,0,0,1,5.41.49c2.43,1.14,4.7,4.47,9.16,11.1,4.65,6.9,4.71,6.85,7.33,10.38,1.57,2.09,1.71,2.9,2.6,6.23.48,1.78,1.19,5.15.61,4.42Z" transform="translate(-91 -33.79)"/><path d="M461.77,350.61a.52.52,0,0,1,0-.63c.13-.2.39-.21.6-.27a8.5,8.5,0,0,1,1.33-.18,7.79,7.79,0,0,1,2.67.3,8.93,8.93,0,0,1,4.32,3.12c2.33,2.74,4.32,5.74,6.39,8.67s4.1,5.88,6.32,8.69c.53.72,1.1,1.41,1.61,2.19a10.18,10.18,0,0,1,1.2,2.54c.52,1.75,1,3.46,1.39,5.25.09.44.17.89.23,1.36a3.4,3.4,0,0,1,0,.8.8.8,0,0,1,0,.2l0,.06a.27.27,0,0,1-.09.12.53.53,0,0,1-.36.18.56.56,0,0,1-.3-.08l-.11-.07a1.21,1.21,0,0,1-.12-.13l-.21-.27-1.67-2.11-3.32-4.23L475,367.59l-6.57-8.52Zm0,0,6.77,8.37,6.85,8.3,6.85,8.3,3.39,4.19,1.69,2.09.21.26h0l0,0a.48.48,0,0,0-.22-.05.39.39,0,0,0-.29.14.16.16,0,0,0-.06.08l0,0c0,.05,0,0,0,0a3.05,3.05,0,0,0,0-.55c-.06-.42-.14-.85-.23-1.28-.34-1.73-.81-3.48-1.3-5.17a8.79,8.79,0,0,0-1.06-2.33c-.46-.73-1-1.44-1.54-2.17-2.16-2.88-4.1-5.92-6-8.92s-3.84-6.07-6.09-8.86a8.86,8.86,0,0,0-4.23-3.14,7.92,7.92,0,0,0-2.65-.34,8.49,8.49,0,0,0-1.33.17c-.21.06-.46.06-.6.26A.51.51,0,0,0,461.77,350.61Z" transform="translate(-91 -33.79)"/><path class="cls-9" d="M153.49,467.08" transform="translate(-91 -33.79)"/><path d="M197.7,347.43c2.92.75,5.8,1.62,8.68,2.5s5.74,1.81,8.6,2.75,5.7,1.93,8.53,3l4.24,1.57c1.4.55,2.81,1.08,4.2,1.66-1.46-.37-2.91-.8-4.36-1.2l-4.33-1.3c-2.88-.87-5.74-1.81-8.59-2.75s-5.7-1.94-8.53-3S200.49,348.58,197.7,347.43Z" transform="translate(-91 -33.79)"/><path class="cls-2" d="M206.36,141.67c5.33-6.46,32.87-25.38,50.45-34.55,13.43-7,22.87-11.92,35-12.45,8.61-.37,17.26-2.56,25.8-1.47,2.72.34,52.27-4.19,53.54-6.27C372.27,85,392.41,76.2,391.1,74c-6.66-10.91-45-7.9-48.53-12.89-8.37-11.79-73.93,3.69-91,11.27-22.32,9.88-35.26,20.89-39.94,25.08-12.87,11.54-17.91,18.65-19.75,21.88-2.67,4.68-7.21,14.06-8.2,19.63a28.47,28.47,0,0,1-1.81,7.07c-1.08,2.58-2.07,3.73-1.65,4.21.67.78,3.73-1.71,10.2-3.75a19.23,19.23,0,0,1,5.78-1.12c2.17,0,2.82.42,4.27.23C203.61,145.26,205.67,142.51,206.36,141.67Z" transform="translate(-91 -33.79)"/><path class="cls-2" d="M166.33,151.35c-1.17-.21-1.71-7,0-13.31.54-2,1.17-3.47,5.71-11.83,3.17-5.85,4.75-8.77,5.71-10.36a117.75,117.75,0,0,1,11.41-16.27c5.4-6.33,10.26-10.14,20-17.75,3.23-2.54,8.11-6.22,14.27-10.36,1-.68,7.68-5.14,14.27-8.88,19-10.76,37.79-15.72,45.67-17.75,2.87-.74,11.43-2,28.54-4.43,2.05-.3,5.48-.78,5.71,0,.33,1.07-4.89,4.14-10,5.91a36.31,36.31,0,0,1-5.71,1.48c-9.56,1.75-14.34,2.63-17.12,3-10.58,1.27-20.21,4.84-27.12,7.4a160.18,160.18,0,0,0-27.11,13.31A144.11,144.11,0,0,0,204.86,90.7a146.36,146.36,0,0,0-20,23.67,113.78,113.78,0,0,0-10,16.27C168.92,142.81,167.69,151.6,166.33,151.35Z" transform="translate(-91 -33.79)"/><path class="cls-10" d="M489,270.92c7.69-4.53,11.62,13.27,32.43,29.67a217.88,217.88,0,0,0,26.54,17.8c16.73,9.19,25.55,10.46,26.53,16.32.57,3.37-1.44,8.48-12.75,16.14a7.81,7.81,0,0,1-9.28-.36l-32.51-26.17-39.64-31.93c-1.12-.95-1.82-4.42-1.27-5.79.3-.76.74-1.66,1.27-2.8C482.19,279.69,486.55,272.34,489,270.92Z" transform="translate(-91 -33.79)"/><path d="M489,270.92a5,5,0,0,1,1.89-.69,4,4,0,0,1,2,.24,9.74,9.74,0,0,1,3.26,2.36,73.08,73.08,0,0,1,5.14,6.24,140.73,140.73,0,0,0,10.36,12.37A92.53,92.53,0,0,0,523.76,302c4.31,3.21,8.75,6.26,13.28,9.14s9.15,5.67,13.93,8.09,9.68,4.61,14.59,6.86a33.92,33.92,0,0,1,7.2,4.13,7.41,7.41,0,0,1,2.49,3.76,7.9,7.9,0,0,1-.26,4.5,14,14,0,0,1-2.08,3.78,25.92,25.92,0,0,1-2.77,3.13,55.19,55.19,0,0,1-6.35,5.22c-.57.39-1.1.78-1.71,1.17a8.53,8.53,0,0,1-2.05,1,8.74,8.74,0,0,1-8.46-1.75l-3.14-2.54-12.54-10.19-24.95-20.55L486,297.17l-3.14-2.55-1.57-1.27-.78-.64a2.87,2.87,0,0,1-.72-.75,8.4,8.4,0,0,1-1-3.91,3.81,3.81,0,0,1,.42-2l.85-1.83a64.87,64.87,0,0,1,3.88-7.09c.72-1.14,1.47-2.26,2.29-3.34A12.12,12.12,0,0,1,489,270.92Zm0,0a12.18,12.18,0,0,0-2.77,2.91c-.8,1.08-1.54,2.2-2.24,3.35a63.93,63.93,0,0,0-3.82,7.11l-.83,1.83a3.67,3.67,0,0,0-.39,1.92,8.15,8.15,0,0,0,1.05,3.81,7.24,7.24,0,0,0,1.47,1.32l1.57,1.26,3.16,2.52,25.39,20,25.4,20L549.59,347l3.16,2.52a7,7,0,0,0,3.18,1.57,6.88,6.88,0,0,0,3.49-.22,6.29,6.29,0,0,0,1.59-.76c.52-.34,1.08-.75,1.62-1.13a53.11,53.11,0,0,0,6.16-5,23.66,23.66,0,0,0,2.61-2.89,12,12,0,0,0,1.84-3.25,6.08,6.08,0,0,0,.25-3.44,5.73,5.73,0,0,0-1.9-2.87,32.16,32.16,0,0,0-6.76-3.92c-4.85-2.29-9.76-4.62-14.5-7.2S541,315,536.5,312s-8.87-6.16-13.12-9.48a97.23,97.23,0,0,1-12-10.87,141,141,0,0,1-10.27-12.49,72.82,72.82,0,0,0-5.08-6.27,9.72,9.72,0,0,0-3.21-2.37,4.07,4.07,0,0,0-2-.27A5.18,5.18,0,0,0,489,270.92Z" transform="translate(-91 -33.79)"/><path class="cls-11" d="M231.26,161.38c-.13-3.38,20.83-6.89,22.43-7.16a109.65,109.65,0,0,1,14.5-1.43,114.23,114.23,0,0,1,21.11,1.43c7.59,1.22,7.52,2,14.51,2.87,9.57,1.23,14.35.41,14.5,1.43.24,1.48-9.6,5.85-21.1,7.16-12.56,1.43-13.7-2.31-29-1.43-9,.51-11.21,1.94-19.78,1.43C242,165.29,231.36,163.78,231.26,161.38Z" transform="translate(-91 -33.79)"/><path class="cls-11" d="M446.62,154.22c-1.4-2.83-12.25,3.8-28.9,5.73-15.54,1.8-19.48-2.42-39.4-4.3-27.57-2.6-48.63,2.79-48.59,4.3,0,1.19,13.07-.87,27.58,7.16,5.52,3,5.05,4.13,9.19,5.73,9.78,3.76,13.8-1.7,27.58-1.44,11.34.22,11.93,4,22.33,2.87a40.45,40.45,0,0,0,17.07-5.73C440.27,164.33,447.86,156.76,446.62,154.22Z" transform="translate(-91 -33.79)"/><path class="cls-11" d="M251.24,175.7c.16-1.38,10.68-1.6,16.93-1.43,10,.26,11.34,1.54,20,1.43a114.69,114.69,0,0,0,15.39-1.43c6.4-.9,8-1.51,16.93-2.87,6.68-1,10-1.51,12.32-1.43,4.68.18,5.21,1.14,16.93,4.3,10.23,2.76,11,2.34,15.39,4.29,5.09,2.26,5.62,3.51,9.23,4.3,7.64,1.66,13.52-2.11,13.86-1.43.43.88-8.68,8.95-20,8.59-4.31-.14-3.92-1.33-18.47-5.73-11.31-3.41-14.15-3.48-16.93-2.86-4.68,1-4.9,3-10.78,4.29a27.75,27.75,0,0,1-12.31,0c-6.31-1.51-6.6-4.25-10.77-4.29-5.5-.06-7.92,1.81-13.86,2.86-4.86.86-5.27,1-15.39-2.86C258.35,177.1,251.11,176.85,251.24,175.7Z" transform="translate(-91 -33.79)"/><path class="cls-12" d="M339.72,394.77l8.56,18.61,41.39-15.75-10-18.61a6.84,6.84,0,0,0-4.28,0c-1.31.48-1.71,1.19-2.86,1.43-2.1.44-2.94-1.8-4.28-1.43-1.83.51-1,4.71-4.28,8.59a8.35,8.35,0,0,1-1.43,1.43c-1.86,1.35-3.33.85-5.7,1.44-3,.73-2.89,2.07-5.71,2.86a11.27,11.27,0,0,1-5.71,0h-5.71Z" transform="translate(-91 -33.79)"/><path class="cls-2" d="M475.29,291.68c10.85,16.67,18.11,23.13,22.84,28.64a171.49,171.49,0,0,1,11.41,14.31c2.58,3.71,5.53,7.72,8.56,12.89,6,10.21,6,11.69,5.71,12.89-1.19,4.43-14.87,11.31-20,11.45-7.82.21-10-5.73-15.69-14.32-4.6-6.92-3.27-5.53-12.85-17.18-8-9.69-8.28-9.39-13.55-16.47-3.63-4.85-6.22-6.12-10.71-7.87s-9.69-3.34-10-4.3,21.81-8.94,34.25-20" transform="translate(-91 -33.79)"/><path class="cls-13" d="M469.58,350.38c1.43,0-7.08-9-9.93-10.41A19.23,19.23,0,0,0,444,341.41c-.76.45-11.13,7.52-10.06,14.7.6,4.06,6.88,12,13.62,21.48,7.69,10.79,13.13,17,17.75,20.85,4.94,4.18,7.63,5.41,10.36,6,4.94,1,14.64-.62,16.78-5.37a15.72,15.72,0,0,0,1.42-5.76c.87-9.44-5.52-21.64-7.13-21.41-.72.1.79,3.81,1.43,5.73,1.42,4.29,1.17,6,0,6.91,0,0-.57.82-.95.33C478.23,373,470,362.28,461,350.38c-.26-.35.45-.86,1.43-1.43s-2.12.5,1.43,0a6.31,6.31,0,0,1,2.8.36C468.17,349.71,468.11,350.38,469.58,350.38Z" transform="translate(-91 -33.79)"/><path class="cls-2" d="M492.42,275.93c1-.55,8.75,9.93,20,21.48,6.5,6.69,16.66,13.77,21.4,17.18,10.34,7.42,12.09,7.54,17.13,10s12.51,5.39,15,7.88c2.86,2.86-2.85,4.29-2.85,4.29a69.15,69.15,0,0,1-14.27-4.29c-6.9-2.92-11.31-6.13-18.56-11.46-6.78-5-13-9.55-20-17.18a72.92,72.92,0,0,1-11.42-15.75C496.3,283.26,491.67,276.34,492.42,275.93Z" transform="translate(-91 -33.79)"/><path class="cls-12" d="M214.62,285.81a210.1,210.1,0,0,0,44.31,31.08,192.22,192.22,0,0,0,50.69,17.77,188.35,188.35,0,0,0,26.68,3.46,214.94,214.94,0,0,0,27,0,248.34,248.34,0,0,0,26.93-3,257.56,257.56,0,0,0,26.56-6,180,180,0,0,1-26.07,8.38c-4.45,1.05-8.95,1.94-13.47,2.7s-9.07,1.28-13.63,1.77-9.15.82-13.74.93-9.21.14-13.81-.06a175.23,175.23,0,0,1-54-10.85,171.75,171.75,0,0,1-25-11.7A165.7,165.7,0,0,1,214.62,285.81Z" transform="translate(-91 -33.79)"/><path d="M212.67,334a12.59,12.59,0,0,0-3,2.75,4.25,4.25,0,0,0-1,3.56,6.22,6.22,0,0,0,2.06,3.15,12.94,12.94,0,0,0,3.32,2.12,11.58,11.58,0,0,0,3.76,1,4.35,4.35,0,0,0,3.46-1,5.7,5.7,0,0,0,1.21-3.6,17.94,17.94,0,0,0-.24-4.06,15.54,15.54,0,0,1,.73,4.07,6.22,6.22,0,0,1-1.13,4.1l-.4.41a4.87,4.87,0,0,1-.47.32,3.45,3.45,0,0,1-1,.46,6.46,6.46,0,0,1-2.18.23,12,12,0,0,1-4.12-1.07,13.61,13.61,0,0,1-3.54-2.34,6.58,6.58,0,0,1-2.17-3.7,4.87,4.87,0,0,1,1.37-4A11.45,11.45,0,0,1,212.67,334Z" transform="translate(-91 -33.79)"/><path d="M225.4,335.05a72.69,72.69,0,0,1-7.34-4.18c-1.2-.74-2.35-1.54-3.5-2.37-.58-.42-1.13-.86-1.68-1.34a4.73,4.73,0,0,1-.8-.89,1.23,1.23,0,0,1-.1-.2s0-.07,0-.12a.81.81,0,0,1,0-.22.58.58,0,0,1,.09-.3l.11-.19a1.89,1.89,0,0,1,.6-.46,6,6,0,0,1,2.26-.38,19.07,19.07,0,0,1,2.15.07c1.42.14,2.82.32,4.21.59a77.11,77.11,0,0,1,8.21,1.95l-4.17-.61c-1.38-.22-2.77-.42-4.16-.58s-2.77-.33-4.15-.4c-.69,0-1.38-.07-2.06-.05a5.53,5.53,0,0,0-1.86.31.89.89,0,0,0-.24.16s0,0,0,0,0,0,0-.06a.1.1,0,0,0,0-.09h0s0,0,0,0a4,4,0,0,0,.61.67c.49.45,1,.88,1.59,1.31,1.09.86,2.23,1.66,3.36,2.49s2.28,1.62,3.44,2.42S224.22,334.27,225.4,335.05Z" transform="translate(-91 -33.79)"/><line class="cls-8" x1="128.41" y1="297.11" x2="129.42" y2="292.13"/><path d="M228.92,320c-2.19-.55-4.35-1.19-6.48-1.9-1.06-.35-2.12-.72-3.18-1.1s-2.11-.78-3.16-1.17l-.46-.17.18-.45c1-2.58,2.16-5.13,3.43-7.62-.72,2.7-1.59,5.35-2.54,8l-.28-.62c1,.38,2.12.73,3.17,1.14s2.1.79,3.14,1.2C224.83,318.13,226.89,319,228.92,320Z" transform="translate(-91 -33.79)"/><path d="M222.81,312.14c-.15.88-.33,1.76-.53,2.62a4.63,4.63,0,0,1-.34,1.29,3.27,3.27,0,0,1-.85,1.11l-.1,0a3.46,3.46,0,0,1,0-1.4,5.28,5.28,0,0,1,.52-1.23c.38-.8.77-1.6,1.2-2.39Z" transform="translate(-91 -33.79)"/><path class="cls-5" d="M530.78,193.82c-3,42.5-31.39,74.6-43.57,84.46-66.15,53.49-141,47.51-157.48,44.9-81.34-12.89-178.49-73.41-172.68-156.07,5.65-80.17,93.36-139,196.74-131.7S536.42,113.66,530.78,193.82Z" transform="translate(-91 -33.79)"/><path class="cls-14" d="M492.42,209.87c-3,54.71-68.3,96.31-149.85,91.83s-148.43-53.33-145.44-108,71.5-95.43,153-91S495.4,155.16,492.42,209.87Z" transform="translate(-91 -33.79)"/><path class="cls-15" d="M396.31,146.47c-14,1.38-24.46-10.5-42.32-10.86-4.69-.1-8.08.3-14.58,2.19-12,3.48-16.69,9.72-29.66,8.76-24.43-1.79-21.53-11.38-37.1-10.95-12.22.33-33.32,10.8-38.53,14.32-21.72,14.65-28.23,34.42-30,32.93-1.57-1.34,6.77-18.92,12.84-25.77,1.59-1.8,11.8-12.46,18.17-17.25,36.34-27.31,79.35-28.24,79.35-28.24a218.35,218.35,0,0,1,55.54,0c25.36,3.33,43.08,9.24,56.72,16.85,8.48,4.73,23.5,13.56,31.4,21.48,17.13,17.18,24.76,34,24.26,34.36s-11.68-20.2-28.54-27.2a60.82,60.82,0,0,0-14.27-4.3c-6.44-.8-8.51.45-12.85-1.43-5.73-2.48-4-3.42-8.56-5.73-2.85-1.43-4.89-1.24-14.27,0C403.94,145.63,401.21,146,396.31,146.47Z" transform="translate(-91 -33.79)"/><g class="cls-16"><path d="M513,192.94a98.08,98.08,0,0,1-7,28.35,110.5,110.5,0,0,1-14.67,25.28c-12,15.48-27.64,27.92-44.85,37.21a181.23,181.23,0,0,1-55.39,18.84,197.63,197.63,0,0,1-29.23,2.75A215.87,215.87,0,0,1,332.57,304a255,255,0,0,1-57-13.43,223.12,223.12,0,0,1-26.82-11.81,190.4,190.4,0,0,1-24.89-15.44A158,158,0,0,1,202,243.87a122.56,122.56,0,0,1-17.31-23.6,96.18,96.18,0,0,1-10.42-27.36,91.27,91.27,0,0,1-1.36-29.26c2.18-19.53,10.36-38.17,22.35-53.68s27.77-28,45-37.26a187.83,187.83,0,0,1,55.44-18.94,226,226,0,0,1,58.59-2.34,241,241,0,0,1,29,4.48,207.82,207.82,0,0,1,28.21,8.2,190.67,190.67,0,0,1,51.3,28.18c15.4,12,28.83,26.86,38.07,44.13a106.67,106.67,0,0,1,10.18,27.4A96.91,96.91,0,0,1,513,192.94Zm-.2,0a99.91,99.91,0,0,0-12.38-56.24C491,119.61,477.49,105.07,462,93.34A193.37,193.37,0,0,0,410.88,65.9a230.3,230.3,0,0,0-56.76-12.42,227.94,227.94,0,0,0-58,2.34,185.81,185.81,0,0,0-54.92,18.55,153.58,153.58,0,0,0-24.25,16,127.18,127.18,0,0,0-20.45,20.58c-12,15.22-20.17,33.56-22.48,52.87a90.45,90.45,0,0,0,1.2,28.94,95.43,95.43,0,0,0,10.18,27.17,121.58,121.58,0,0,0,17.1,23.55,150.15,150.15,0,0,0,21.82,19.33A200.54,200.54,0,0,0,276,289.53a256.26,256.26,0,0,0,56.8,12.84,214.8,214.8,0,0,0,58.08-1.45,185.74,185.74,0,0,0,55.09-18.24c17.19-9,32.9-21.17,45-36.44S511,212.37,512.8,192.93Z" transform="translate(-91 -33.79)"/></g><path class="cls-2" d="M187,142.77c6.59-22.05,28.54-45.82,35.68-51.55,13.56-10.88,39.93-20.74,45.67-22.91,27.12-10.26,50.12-10.22,68.5-10a231.81,231.81,0,0,1,59.93,8.59c10.66,3,24,6.83,40,15.75a167.06,167.06,0,0,1,31.4,22.91c8.62,7.75,16,14.51,22.83,25.77,6.47,10.73,9.29,18.18,8.56,18.62s-12.13-16.34-17.12-15.75c-2.62.3,4.22,11.33,1.42,11.45s-9.52-9.51-14.27-11.45c-2.5-1,1.42,6,0,5.72-8.59-1.59-14.34-9.5-25.68-17.18-3.18-2.15-6.4-3.82-12.85-7.16-14.41-7.47-37.74-15.3-64.22-18.61-37.05-4.64-65.19,1.45-71.35,2.86a202.33,202.33,0,0,0-31.39,10,165.24,165.24,0,0,0-25.69,12.88c-7.86,4.88-16.23,10.07-24.26,18.62-14.77,15.7-19.8,33.57-21.41,32.93s3.92-16.05,1.43-17.18c-2-.9-7.1,7.94-8.56,7.16-1.2-.65,1.26-7.1,4.28-17.19C192.56,138.09,186.1,145.84,187,142.77Z" transform="translate(-91 -33.79)"/><path class="cls-2" d="M164.19,151.36c-1.67-1.17,9.29-34.17,24.26-51.55,12.88-15,25.88-23.32,34.25-28.63a178.72,178.72,0,0,1,48.52-22.91,212.84,212.84,0,0,1,68.5-10c7.67.14,25.81,2.25,48.52,7.16a208.48,208.48,0,0,1,48.52,17.19c10.8,4.94,24.88,11.52,40,24.34,13.25,11.26,22.54,26,21.41,27.2S483.29,102.31,476.72,97c-9.82-8-10.12-9.53-17.13-14.32-2.2-1.5-6-3.95-21.4-11.45-11.58-5.63-17.36-8.45-21.41-10-11-4.31-21.3-6.27-41.38-10-13.43-2.51-20.15-3.76-25.69-4.29a180.06,180.06,0,0,0-44.24,1.43c-23.8,3.31-41,9.79-52.8,14.32-10.52,4-20.67,10.29-31.4,17.18-7.55,4.85-16,13.14-24.26,22.91s-7.24,9.24-17.71,21.89a11.32,11.32,0,0,0-1.4,2.17C175.4,131.87,165.38,152.19,164.19,151.36Z" transform="translate(-91 -33.79)"/><path class="cls-2" d="M154.91,199.33A190.36,190.36,0,0,0,126.37,238a172.57,172.57,0,0,0-12.84,28.64,154.67,154.67,0,0,0-7.14,32.93,150.87,150.87,0,0,0,1.43,40.09c4.44,26,14.63,44.14,22.83,58.71a226.2,226.2,0,0,0,21.41,31.5,228.87,228.87,0,0,0,21.41,22.91c16,15,60.5,39.7,62.07,37.94,1.42-1.58-37.1-27.2-39.24-29.35-5-5-7.11-7.11-12.84-12.89,0,0-8.17-8.22-17.13-18.61-7.31-8.47-17.58-20.3-27.11-37.23a180.55,180.55,0,0,1-18.56-47.25,143,143,0,0,1-4.28-35.79A140.37,140.37,0,0,1,125,263.76c6.7-18.38,15.66-30.8,21.4-38.66a178.1,178.1,0,0,1,14.27-17.18l-2.85-11.46Z" transform="translate(-91 -33.79)"/><path class="cls-17" d="M479.57,288.81l1,1.93a4.55,4.55,0,0,0,1.31,1.58c7.34,5.67,12.38,11.06,14.86,10.81,3.51-.35,4.6-5.82,5.71-7.16.88-1.06,2.85-1.43,4.28-5.72.19-.57-.22-1-.45-1.54-.84-1.91-2.54-3-5.26-7-2.85-4.3-3.87-6.77-5.71-7.16s-2.54,1.72-7.13,5.72c-4.33,3.77-8.66,5.31-8.81,7.52a2.26,2.26,0,0,0,.24,1.07" transform="translate(-91 -33.79)"/><polygon class="cls-2" points="264.42 393.91 305.09 377.44 299.38 367.42 259.42 383.17 264.42 393.91"/><path class="cls-2" d="M329.73,510.75c2.41-7,45.6-1.4,84.2-11.46,28.34-7.37,49-21.85,58.51-28.63a327.29,327.29,0,0,0,42.81-37.23c4.82-5.13,9.44-10.45,10-10,.92.71-8.76,17.87-22.83,32.93-20,21.39-42.16,31.41-61.37,40.09a210.93,210.93,0,0,1-31.39,11.46,218.2,218.2,0,0,1-30,5.72c-24.33,3-21.93-.87-38.53,1.43-2.66.37-9.87,1.47-11.42-1.43A3.77,3.77,0,0,1,329.73,510.75Z" transform="translate(-91 -33.79)"/><path class="cls-15" d="M453.33,196c-3.19,1.52-7.47-.6-8.05-3.71-.54-2.95,2.4-5.95,5.37-6.49,1.65-.3,4.14,0,5.36,1.86C457.68,190.19,456.35,194.57,453.33,196Z" transform="translate(-91 -33.79)"/><path class="cls-15" d="M455.31,205.77c-1.93-.2-3.47-2.94-2.85-4.3.89-1.94,6.48-1.62,7.13,0,.42,1-1.15,2.59-1.42,2.87A3.87,3.87,0,0,1,455.31,205.77Z" transform="translate(-91 -33.79)"/><path class="cls-15" d="M468.87,202.19c-.45-.1-4-.88-4.28-2.86s2.56-3.67,4.28-4.3c.95-.35,2.82-1,4.28,0a3.82,3.82,0,0,1,1.43,2.86,4.48,4.48,0,0,1-2.86,4.3A4.84,4.84,0,0,1,468.87,202.19Z" transform="translate(-91 -33.79)"/><path class="cls-15" d="M443.9,188.59" transform="translate(-91 -33.79)"/><path class="cls-15" d="M442,198.61c-1.7,3.15-8.53,4.15-11.86,1.43a5.23,5.23,0,0,1-1.7-5.73c.91-2.64,4-4.35,6.78-4.29C440.07,190.12,443.78,195.39,442,198.61Z" transform="translate(-91 -33.79)"/><path class="cls-15" d="M443.9,182.86c0,1.51-3.4,3.08-6.35,2.86-2.26-.16-5.07-1.45-5.07-2.86s2.81-2.7,5.07-2.86C440.5,179.78,443.9,181.35,443.9,182.86Z" transform="translate(-91 -33.79)"/><path class="cls-15" d="M439.62,208.63a4.22,4.22,0,0,1,5.7-1.43,3.85,3.85,0,0,1,1.43,4.3c-1,2.57-5.52,3.32-7.13,1.43A3.85,3.85,0,0,1,439.62,208.63Z" transform="translate(-91 -33.79)"/><path class="cls-15" d="M428.91,205.05c-1.14-.11-2.61.45-2.85,1.43-.29,1.19,1.26,2.71,2.85,2.87,1.15.11,2.62-.45,2.86-1.43C432.06,206.73,430.5,205.21,428.91,205.05Z" transform="translate(-91 -33.79)"/><path class="cls-15" d="M296.91,277.36" transform="translate(-91 -33.79)"/><path class="cls-18" d="M321.17,294.54c-14.8-1.89-24.76-5.84-41.39-12.88-26.42-11.21-40.65-21.49-45.66-25.78-1.88-1.6-8.66-7.76-11.42-11.45-8.56-11.46,2.61-2.77,4.31-2.55,4.38.56,10.8,1.31,12.82-.32,6.63-5.35,23.44,6.23,32.82,2.87,8-2.88,6.65-7.55,14.27-10,11.74-3.82,17,6.59,37.1,8.59,13.24,1.31,16.69-2.65,22.84,1.43,9,6,10.56,15.17,18.55,20,10.25,6.25,18.4-5.53,27.11,1.44,4.82,3.84,2.57,9.47,7.14,11.45,6.18,2.68,11.79-7,24.26-7.16,5.39-.06,33.88-8.37,34.25-5.73.69,5-35.63,23.54-55.66,27.21-9.82,1.8-26.52,5-45.66,5.73C339.14,298.06,328.86,295.53,321.17,294.54Z" transform="translate(-91 -33.79)"/><path class="cls-10" d="M618,391.91" transform="translate(-91 -33.79)"/></svg>